<?xml version="1.0" encoding="utf-8"?>
<svg width="132px" height="119px" viewBox="0 0 132 119" version="1.1" xmlns:xlink="http://www.w3.org/1999/xlink" xmlns="http://www.w3.org/2000/svg">
  <defs>
    <linearGradient gradientUnits="objectBoundingBox" x1="0.5" y1="0" x2="1" y2="0.7368421" id="gradient_1">
      <stop offset="0%" stop-color="#7AE7C7" />
      <stop offset="54.472668%" stop-color="#104F55" />
    </linearGradient>
  </defs>
  <g id="Group">
    <path d="M0 59.5C0 26.6391 29.5492 0 66 0C102.451 0 132 26.6391 132 59.5C132 92.3609 102.451 119 66 119C29.5492 119 0 92.3609 0 59.5Z" id="Oval" fill="url(#gradient_1)" fill-rule="evenodd" stroke="none" />
    <g id="11A" transform="translate(14 17)">
      <g transform="translate(0, 16.884766)" id="11A" fill="#F1F1F1">
        <path d="M22.1851 66.2378Q22.1851 67.1899 21.7883 67.5549Q21.3916 67.9199 20.4395 67.9199L13.9014 67.9199Q12.9492 67.9199 12.5525 67.5549Q12.1558 67.1899 12.1558 66.2378L12.1558 33.0078L7.74414 35.2295Q7.10937 35.5786 6.60156 35.5151Q5.61768 35.3564 4.45923 35.0073Q3.30078 34.6582 1.9043 34.0552Q1.42822 33.7695 1.33301 33.5474Q1.20605 33.3252 1.33301 32.8174Q2.06299 30.0244 3.07861 28.2471Q3.396 27.8027 3.99902 27.5171L16.123 21.3916L22.1851 21.3916L22.1851 66.2378ZM51.1938 66.2378Q51.1938 67.1899 50.7971 67.5549Q50.4004 67.9199 49.4482 67.9199L42.9102 67.9199Q41.958 67.9199 41.5613 67.5549Q41.1646 67.1899 41.1646 66.2378L41.1646 33.0078L36.7529 35.2295Q36.1182 35.5786 35.6104 35.5151Q34.6265 35.3564 33.468 35.0073Q32.3096 34.6582 30.9131 34.0552Q30.437 33.7695 30.3418 33.5474Q30.2148 33.3252 30.3418 32.8174Q31.0718 30.0244 32.0874 28.2471Q32.4048 27.8027 33.0078 27.5171L45.1318 21.3916L51.1938 21.3916L51.1938 66.2378ZM87.5977 24.9146Q89.3433 27.3584 91.1682 31.2146Q92.9932 35.0708 94.707 39.6729Q96.4209 44.2749 97.8015 49.0833Q99.1821 53.8916 100.071 58.335Q100.959 62.7783 101.086 66.2378Q101.118 67.9199 99.563 67.9199L91.8823 67.9199Q90.3906 67.9199 90.3271 66.4282Q90.2002 62.8735 89.1846 57.7954L71.8555 57.7954Q70.9668 62.7466 70.8398 66.4282Q70.7764 67.9199 69.2212 67.9199L61.6992 67.9199Q61.1279 67.9199 60.7471 67.5867Q60.3662 67.2534 60.3979 66.4282Q60.5566 62.9053 61.4294 58.4143Q62.3022 53.9233 63.6987 49.0991Q65.0952 44.2749 66.8091 39.657Q68.5229 35.0391 70.3638 31.1987Q72.2046 27.3584 73.9502 24.9146Q74.8706 23.6133 75.9021 23.0103Q76.9336 22.4072 78.457 22.4072L83.0273 22.4072Q84.5825 22.4072 85.6299 23.0103Q86.6772 23.6133 87.5977 24.9146ZM80.4248 32.4365Q78.3301 35.769 76.5845 40.4028Q74.8389 45.0366 73.5693 49.9243L87.3438 49.9243Q86.0107 45.0366 84.2651 40.4028Q82.5195 35.769 80.6152 32.4365L80.4248 32.4365Z" />
      </g>
    </g>
  </g>
</svg>